<?xml version="1.0" ?><svg enable-background="new 0 0 64 64" height="64px" version="1.1" viewBox="0 0 64 64" width="64px" xml:space="preserve" xmlns="http://www.w3.org/2000/svg" xmlns:xlink="http://www.w3.org/1999/xlink"><g id="_x31_-Call"/><g id="_x32_-24_Hours_Call"/><g id="_x33_-Sending_Call"/><g id="_x34_-Incoming_Call"/><g id="_x35_-Talk_On_Phone"/><g id="_x36_-Block_Call"/><g id="_x37_-Hold_Call"/><g id="_x38_-Mute_Call"/><g id="_x39_-Phone_Book"/><g id="_x31_0-Add_Contact"/><g id="_x31_1-Delete_Contact"/><g id="_x31_2-Mail"/><g id="_x31_3-Message_Read"/><g id="_x31_4-Email"/><g id="_x31_5-Send_Mail"/><g id="_x31_6-Important_Mail"/><g id="_x31_7-Mail_Chain"/><g id="_x31_8-Messaging"/><g id="_x31_9-Sending"/><g id="_x32_0-Chat"/><g id="_x32_1-Mail_Attachment"/><g id="_x32_2-Mobile_Link"/><g id="_x32_3-Smartphone"/><g id="_x32_4-Social_Media"/><g id="_x32_5-Support"/><g id="_x32_6-Links"/><g id="_x32_7-Phone"/><g id="_x32_8-Phone-2"/><g id="_x32_9-Map"/><g id="_x33_0-Location"/><g id="_x33_1-Write"/><g id="_x33_2-World"/><g id="_x33_3-Home"/><g id="_x33_4-Calendar"/><g id="_x33_5-Website"/><g id="_x33_6-Info"/><g id="_x33_7-Bull_Horn"/><g id="_x33_8-Profile"/><g id="_x33_9-Quote__x26__Answer"/><g id="_x34_0-Notification"><g><path d="M36,12.5379639v-0.5770264c0-2.2060547-1.7939453-4-4-4s-4,1.7939453-4,4v0.5770264    c1.2772217-0.3225708,2.6193237-0.4989014,4-0.4989014S34.7227783,12.2153931,36,12.5379639z"/><path d="M44.3623047,23.1289063C43.4980469,17.9462891,38.1835938,14.0390625,32,14.0390625    s-11.4980469,3.9072266-12.3623047,9.0898438l-3.1514282,18.9101563h31.0274048L44.3623047,23.1289063z"/><path d="M32,56.0390625c2.7849121,0,5.1884155-1.6393433,6.3148193-4H25.6851807    C26.8115845,54.3997192,29.2150879,56.0390625,32,56.0390625z"/><path d="M48,44.0390625h-0.1530151H16.1529541H16c-1.6542969,0-3,1.3457031-3,3s1.3457031,3,3,3h32c1.6542969,0,3-1.3457031,3-3    S49.6542969,44.0390625,48,44.0390625z"/></g></g><g id="_x34_1-Share"/><g id="_x34_2-Time"/></svg>